<!--?xml version="1.0" encoding="utf-8"?-->
<!-- Generator: Adobe Illustrator 18.1.1, SVG Export Plug-In . SVG Version: 6.00 Build 0)  -->

<svg version="1.1" id="_x32_" xmlns="http://www.w3.org/2000/svg" xmlns:xlink="http://www.w3.org/1999/xlink" x="0px" y="0px" viewBox="0 0 512 512" style="width: 256px; height: 256px; opacity: 1;" xml:space="preserve">
<style type="text/css">
	.st0{fill:#4B4B4B;}
</style>
<g>
	<path class="st0" d="M487.095,87.704c-15.328-15.358-36.716-24.913-60.134-24.905H85.039c-23.418-0.008-44.806,9.547-60.134,24.905
		C9.547,103.032-0.008,124.419,0,147.837v216.326c-0.008,23.418,9.547,44.806,24.905,60.134
		c15.328,15.358,36.715,24.913,60.134,24.905h341.922c23.418,0.008,44.806-9.547,60.134-24.905
		c15.358-15.328,24.912-36.715,24.905-60.134V147.837C512.007,124.419,502.453,103.032,487.095,87.704z M473.36,364.163
		c-0.008,12.875-5.162,24.347-13.592,32.806c-8.461,8.43-19.932,13.584-32.806,13.592H85.039
		c-12.875-0.008-24.346-5.162-32.806-13.592c-8.43-8.46-13.584-19.931-13.592-32.806V147.837
		c0.008-12.875,5.162-24.346,13.592-32.806c8.46-8.43,19.932-13.584,32.806-13.592h341.922c12.875,0.008,24.346,5.162,32.806,13.592
		c8.43,8.46,13.584,19.932,13.592,32.806V364.163z" style="fill: rgb(75, 75, 75);"></path>
	<path class="st0" d="M424.553,123.37l-151.58,152.471c-4.559,4.543-10.596,7.049-16.973,7.056c-6.385,0-12.498-2.536-16.921-7.019
		l0.046,0.053L87.446,123.37l-16.437,16.346l151.558,152.441l0.03,0.038c8.846,8.92,20.883,13.887,33.403,13.887
		c12.52,0.007,24.52-4.989,33.365-13.849l0.151-0.152l151.475-152.365L424.553,123.37z" style="fill: rgb(75, 75, 75);"></path>
	<polygon class="st0" points="336.511,307.712 435.323,392.003 450.372,374.358 351.559,290.067 	" style="fill: rgb(75, 75, 75);"></polygon>
	
		<rect x="106.971" y="276.095" transform="matrix(-0.6489 -0.7609 0.7609 -0.6489 -63.9735 652.5507)" class="st0" width="23.191" height="129.88" style="fill: rgb(75, 75, 75);"></rect>
</g>
</svg>
