<?xml version="1.0" encoding="utf-8"?>
<!-- Generator: Adobe Illustrator 19.0.0, SVG Export Plug-In . SVG Version: 6.00 Build 0)  -->
<svg version="1.1" id="レイヤー_1" xmlns="http://www.w3.org/2000/svg" xmlns:xlink="http://www.w3.org/1999/xlink" x="0px"
	 y="0px" viewBox="0 0 73.4 74.3" style="enable-background:new 0 0 73.4 74.3;" xml:space="preserve">
<style type="text/css">
	.st0{fill:#4BFF2C;}
</style>
<g>
	<path class="st0" d="M72.4,13.3c1.3,1.3,1.4,2.6,0,3c-5.8,1.1-11.6,2.6-17.4,3.1c-5.9,0.5-7.5,2.4-5.5,8.2c1,2.8,2.4,5.7,2.5,8.6
		c0.5,14.7-4.7,31.2-22.8,36c-0.9,0.3-1.8,0.8-2.7,1.2c-4.8,1.3-8,1.5-13,0c-5.5-2.5-9.5-6.5-12-12c-1.2-4.2-2.3-8.4,0-13
		c2.2-5.3,4.5-10.7,6.7-16c5.2-13,13.5-17.4,27.2-14.5c2.8,0.6,5.5,1.7,8.3,2.5c0.3-0.3,0.6-0.7,0.8-1c-1.2-1.3-2.1-3.1-3.6-3.8
		c-2.7-1.3-5.6-2.1-8.5-2.6c-8.1-1.5-9.7-4.4-5.9-11.5c2.5-1.6,6-1.8,10,0c3.8,4,7.7,8,11.8,12.2c0.3-0.2,1-0.5,1.7-1
		C60.3,5.2,62.9,5.3,72.4,13.3z M29.4,61.1c1.1,3.4,3,4.9,7.2,4.1c4.6-0.9,5.3-3.7,5.9-7.3c0.8-5.1,1.9-10.1,2.9-15.2
		c0.5-2.6,1-5.1-2.9-5.4c-3.3-0.3-6.4-0.7-6.9,4c-0.4,3.9-1.4,7.7-2,11.2c-2.5-2.3-4.7-5.9-6.8-5.8c-2.5,0.1-4.8,3.5-7.4,5.7
		c-0.3-3.7-0.4-7.7-0.8-11.6c-0.5-4.8-4.3-3-7-3.1c-2.9-0.1-3.8,1.4-3.2,4.1c1,4.9,1.8,9.8,2.7,14.7c1.7,9,1.9,9.3,10.9,8.1
		C24.3,64.3,26.5,62.5,29.4,61.1z M24.7,24.7c0.1,0.6,0.1,1.2,0.2,1.8c-2.2,0.6-4.5,0.9-6.5,1.8c-1.5,0.7-2.5,2.3-3.7,3.5
		c1.4,1.2,2.7,3.3,4.2,3.5c3.3,0.3,6.7-0.3,10.4-0.6c-0.4-4.8,1.8-10-4-12.1c-3.1-1.1-6.4-0.8-9.9,2.6C19.4,25,22,24.9,24.7,24.7z
		 M39.1,21.6c-0.5,0-1,0-1.6,0c0,4.3,0,8.6,0,12.9c0.5,0,1,0,1.6,0C39.1,30.2,39.1,25.9,39.1,21.6z M34.5,21.7c-0.6,0-1.3,0-1.9,0
		c-1.1,4.3-1.2,8.6,0.3,12.7c0.5,0,1.1,0,1.6,0C34.5,30.1,34.5,25.9,34.5,21.7z"/>
	<path class="st0" d="M25.7,32c-2.3,0.4-4.6,0.9-6.9,1.3c-0.2-0.8-0.4-1.6-0.5-2.5c2.3-0.5,4.5-1.1,6.8-1.6
		C25.3,30.1,25.5,31.1,25.7,32z"/>
</g>
</svg>
